<svg width="310" height="133" viewBox="0 0 310 133" fill="none" xmlns="http://www.w3.org/2000/svg">
<path d="M298 55.0971L294.147 46.9503L286 43.0971L294.147 39.2439L298 31.0971L301.853 39.2439L310 43.0971L301.853 46.9503L298 55.0971Z" fill="white"/>
<path d="M59 27.0971L54.8257 18.2714L46 14.0971L54.8257 9.92282L59 1.09714L63.1743 9.92282L72 14.0971L63.1743 18.2714L59 27.0971Z" fill="white"/>
<path d="M203.096 123.395L200.669 118.119L195.394 115.693L200.669 113.266L203.096 107.991L205.523 113.266L210.798 115.693L205.523 118.119L203.096 123.395Z" fill="white"/>
<path d="M7 47.0971L4.79452 42.3026L0 40.0971L4.79452 37.8917L7 33.0971L9.20548 37.8917L14 40.0971L9.20548 42.3026L7 47.0971Z" fill="white"/>
<path d="M106.004 67.0971L103.483 61.6177L98.0035 59.0971L103.483 56.5766L106.004 51.0971L108.524 56.5766L114.004 59.0971L108.524 61.6177L106.004 67.0971Z" fill="white"/>
<circle cx="230" cy="4.41945" r="3.91945" fill="white"/>
<circle cx="259.5" cy="86.5971" r="3.5" fill="white"/>
<circle cx="192" cy="69.0971" r="2" fill="white"/>
<circle cx="70.092" cy="129.838" r="2.61297" fill="white"/>
<circle cx="17.5503" cy="117.362" r="2.61297" fill="white"/>
<circle cx="31.6083" cy="101.547" r="2.61297" fill="white"/>
</svg>
